<?xml version="1.0" standalone="no"?>
<!DOCTYPE svg PUBLIC "-//W3C//DTD SVG 20010904//EN"
 "http://www.w3.org/TR/2001/REC-SVG-20010904/DTD/svg10.dtd">
<svg version="1.0" xmlns="http://www.w3.org/2000/svg"
 width="580.000000pt" height="636.000000pt" viewBox="0 0 580.000000 636.000000"
 preserveAspectRatio="xMidYMid meet">

<g transform="translate(0.000000,636.000000) scale(0.100000,-0.100000)"
fill="#000000" stroke="none">
<path d="M2834 6341 c-62 -38 -64 -47 -64 -253 l0 -187 -32 -17 c-169 -86
-241 -291 -163 -461 35 -77 66 -114 134 -158 l61 -39 0 -144 c0 -79 -4 -142
-8 -140 -9 3 -95 97 -165 180 -64 75 -118 102 -197 96 -111 -8 -184 -86 -184
-198 -1 -42 5 -66 24 -97 30 -49 355 -419 457 -520 l73 -73 -2 -197 -3 -197
-60 -18 c-32 -9 -60 -16 -61 -15 -1 1 -64 110 -139 242 -76 132 -140 243 -144
247 -7 7 -224 -116 -228 -129 -2 -5 60 -118 137 -253 152 -266 145 -243 88
-288 -19 -15 -10 -19 -231 125 -116 76 -127 86 -127 113 0 17 -43 184 -95 372
-67 244 -102 352 -121 379 -74 107 -246 105 -324 -2 -48 -67 -49 -108 -1 -286
23 -85 40 -157 38 -159 -4 -4 -213 129 -231 146 -4 4 -9 41 -11 82 -4 123 -50
209 -149 282 -96 71 -244 86 -351 36 -27 -13 -55 -24 -61 -23 -7 0 -76 42
-154 93 -153 100 -194 114 -247 86 -69 -35 -96 -104 -68 -173 15 -37 33 -53
171 -142 l154 -100 -6 -44 c-14 -98 52 -243 139 -307 104 -76 253 -92 368 -38
l56 26 123 -80 c67 -43 121 -81 119 -83 -2 -2 -71 -13 -154 -25 -174 -24 -225
-45 -270 -109 -25 -36 -30 -52 -30 -104 0 -112 70 -195 172 -204 55 -5 721 90
754 107 11 7 27 9 35 6 13 -5 321 -201 333 -212 2 -2 -7 -40 -20 -84 l-23 -80
-288 0 -288 0 0 -135 0 -135 289 0 289 0 16 -62 c10 -35 20 -72 23 -84 3 -15
-3 -26 -24 -39 -15 -11 -92 -61 -171 -112 -143 -92 -143 -92 -175 -78 -45 20
-717 116 -759 108 -93 -17 -168 -105 -168 -198 0 -66 51 -150 111 -181 16 -8
95 -24 176 -35 82 -11 155 -23 163 -25 9 -3 -34 -37 -108 -86 l-123 -80 -62
28 c-52 24 -75 28 -147 28 -71 1 -94 -4 -142 -26 -78 -36 -142 -98 -180 -175
-27 -55 -31 -76 -32 -142 l-1 -79 -148 -96 c-81 -53 -154 -107 -163 -120 -59
-91 6 -206 115 -206 40 0 62 11 192 95 80 52 150 95 154 95 5 0 28 -9 51 -20
136 -66 313 -33 414 76 63 69 92 141 95 237 l3 80 121 78 c67 43 121 74 121
68 0 -5 -18 -76 -41 -157 -47 -165 -47 -204 -5 -276 36 -62 115 -101 187 -93
58 7 109 36 143 80 17 23 52 131 116 362 51 182 95 351 99 377 l6 47 170 110
169 111 33 -32 c29 -28 31 -34 20 -52 -37 -58 -267 -465 -267 -472 0 -5 50
-38 111 -72 92 -52 114 -61 124 -50 6 7 72 118 145 246 72 127 135 232 139
232 3 -1 31 -7 61 -14 l55 -12 3 -207 2 -207 -25 -12 c-25 -11 -488 -528 -512
-571 -7 -12 -15 -40 -18 -63 -20 -129 100 -250 228 -230 65 11 92 31 208 161
61 69 113 125 115 125 2 0 4 -66 4 -147 l-1 -148 -54 -33 c-63 -38 -115 -98
-147 -168 -33 -73 -32 -199 3 -274 33 -71 80 -124 147 -167 l52 -34 0 -180 c0
-199 6 -226 60 -254 37 -19 103 -19 140 0 54 28 60 55 60 254 l0 180 53 34
c66 43 113 96 146 167 37 79 37 201 0 280 -33 71 -78 123 -146 166 l-53 34 0
140 c0 77 4 140 8 140 5 0 57 -54 116 -120 59 -66 120 -127 135 -135 99 -51
227 -10 278 89 22 42 22 132 0 176 -15 31 -74 102 -186 225 -20 22 -96 108
-168 191 -73 83 -144 156 -158 162 l-25 12 2 206 3 207 50 13 c28 7 55 13 61
14 7 0 72 -105 144 -232 73 -128 139 -239 145 -246 10 -12 32 -3 123 50 61 34
112 67 112 72 0 8 -227 409 -267 472 -11 18 -9 24 20 52 l33 32 169 -111 170
-110 6 -47 c4 -26 48 -195 99 -377 64 -231 99 -339 116 -362 62 -82 175 -104
266 -51 52 31 98 108 98 165 0 18 -18 98 -40 178 -22 80 -40 149 -40 155 0 5
55 -26 122 -69 l121 -79 2 -81 c2 -68 7 -91 34 -145 87 -177 300 -251 476
-166 23 11 45 20 50 20 5 0 75 -43 156 -95 128 -83 152 -95 190 -95 112 0 176
122 111 209 -10 13 -83 66 -162 118 l-143 93 -2 80 c-2 67 -7 90 -34 144 -37
76 -101 138 -179 174 -48 22 -71 27 -142 26 -72 0 -95 -4 -147 -28 l-62 -28
-123 80 c-75 50 -117 83 -108 86 8 2 71 12 140 21 166 22 194 30 237 68 95 84
95 220 0 304 -68 60 -78 60 -470 3 -194 -28 -367 -57 -385 -65 l-32 -15 -171
112 c-148 96 -170 114 -165 132 4 12 13 49 22 84 l16 62 289 0 289 0 0 135 0
135 -288 0 -288 0 -23 80 c-13 44 -22 82 -20 84 2 2 45 30 94 61 50 32 123 80
164 107 l75 50 50 -16 c79 -23 693 -109 744 -103 98 11 167 95 167 204 0 52
-5 69 -30 105 -44 63 -94 83 -270 108 -82 12 -152 23 -154 25 -2 2 52 40 119
83 l122 80 57 -26 c115 -54 264 -38 370 38 84 62 151 209 137 307 l-6 43 154
100 c129 85 156 107 171 140 23 52 14 101 -30 148 -30 34 -38 37 -87 37 -50 0
-61 -5 -202 -98 -82 -54 -152 -96 -155 -94 -92 52 -199 69 -290 47 -74 -18
-162 -80 -205 -145 -42 -63 -70 -161 -63 -223 l5 -43 -120 -80 c-66 -44 -122
-78 -125 -75 -3 3 12 65 33 138 50 172 52 238 8 300 -41 59 -95 88 -163 88
-71 0 -134 -30 -167 -80 -27 -40 -214 -696 -214 -750 0 -27 -12 -38 -162 -136
-90 -59 -167 -108 -173 -110 -5 -2 -24 9 -42 24 l-32 28 140 244 c76 134 138
248 137 252 -5 14 -222 137 -229 130 -4 -4 -68 -115 -144 -247 -75 -132 -138
-241 -139 -242 -1 -1 -29 6 -61 15 l-60 18 -3 201 -2 200 34 27 c44 33 471
516 499 564 29 50 29 132 -1 189 -32 62 -89 96 -166 101 -87 5 -124 -19 -247
-158 -56 -63 -106 -116 -111 -118 -4 -2 -8 62 -8 141 l0 145 45 26 c97 57 168
165 181 276 14 120 -51 261 -151 327 -27 18 -56 38 -62 43 -10 8 -13 60 -13
194 0 171 -1 185 -21 210 -44 56 -118 72 -175 37z"/>
</g>
</svg>
